<svg width="23" height="17" viewBox="0 0 23 17" fill="none" xmlns="http://www.w3.org/2000/svg">
<path fill-rule="evenodd" clip-rule="evenodd" d="M7.18703 8.8042C7.18703 11.0133 8.9779 12.8042 11.187 12.8042C13.3962 12.8042 15.187 11.0133 15.187 8.8042C15.187 6.59506 13.3962 4.8042 11.187 4.8042C8.9779 4.8042 7.18703 6.59506 7.18703 8.8042ZM13.187 8.8042C13.187 9.90877 12.2916 10.8042 11.187 10.8042C10.0825 10.8042 9.18703 9.90877 9.18703 8.8042C9.18703 7.69963 10.0825 6.8042 11.187 6.8042C12.2916 6.8042 13.187 7.69963 13.187 8.8042Z" fill="#9564AA"/>
<path fill-rule="evenodd" clip-rule="evenodd" d="M11.187 0.804199C13.9146 0.804199 16.5227 2.23482 18.9533 4.58535C19.7825 5.38725 20.5327 6.24336 21.1931 7.09982C21.5916 7.61664 21.8746 8.02319 22.0295 8.2654L22.3741 8.8042L22.0295 9.343C21.8746 9.5852 21.5916 9.99176 21.1931 10.5086C20.5327 11.365 19.7825 12.2212 18.9533 13.023C16.5227 15.3736 13.9146 16.8042 11.187 16.8042C8.45949 16.8042 5.85136 15.3736 3.42074 13.023C2.59153 12.2212 1.84134 11.365 1.18094 10.5086C0.782441 9.99176 0.499509 9.5852 0.3446 9.343L0 8.8042L0.3446 8.2654C0.499509 8.02319 0.782441 7.61664 1.18094 7.09982C1.84134 6.24336 2.59153 5.38725 3.42074 4.58535C5.85136 2.23482 8.45949 0.804199 11.187 0.804199ZM19.6093 8.32108C19.0046 7.53692 18.3172 6.7524 17.563 6.02305C15.4695 3.99857 13.2921 2.8042 11.187 2.8042C9.08196 2.8042 6.90453 3.99857 4.81108 6.02305C4.05687 6.7524 3.36942 7.53692 2.76478 8.32108C2.63419 8.49043 2.51352 8.65202 2.4032 8.8042C2.51352 8.95638 2.63419 9.11796 2.76478 9.28732C3.36942 10.0715 4.05687 10.856 4.81108 11.5853C6.90453 13.6098 9.08196 14.8042 11.187 14.8042C13.2921 14.8042 15.4695 13.6098 17.563 11.5853C18.3172 10.856 19.0046 10.0715 19.6093 9.28732C19.7399 9.11796 19.8605 8.95638 19.9709 8.8042C19.8605 8.65202 19.7399 8.49043 19.6093 8.32108Z" fill="#9564AA"/>
</svg>
