<svg width="23" height="21" viewBox="0 0 23 21" fill="none" xmlns="http://www.w3.org/2000/svg">
<path fill-rule="evenodd" clip-rule="evenodd" d="M15.7402 0.804215C14.2926 0.804199 13.3594 0.975582 12.2897 1.49591C11.8936 1.68855 11.5221 1.92055 11.177 2.19121C10.8452 1.93572 10.4885 1.71438 10.1088 1.52777C9.01833 0.991792 8.03729 0.804199 6.64156 0.804199C2.90345 0.804199 0.187012 3.88206 0.187012 7.87946C0.187012 10.8983 1.88084 13.8144 5.03585 16.6343C6.69191 18.1144 8.80633 19.5791 10.3206 20.3584L11.187 20.8042L12.0534 20.3584C13.5677 19.5791 15.6821 18.1144 17.3382 16.6343C20.4932 13.8144 22.187 10.8983 22.187 7.87946C22.187 3.92437 19.445 0.819461 15.7402 0.804215ZM20.187 7.87946C20.187 10.2446 18.7732 12.6786 16.0007 15.1565C14.4892 16.5075 12.546 17.8576 11.187 18.5659C9.82805 17.8576 7.88483 16.5075 6.37329 15.1565C3.60083 12.6786 2.18701 10.2446 2.18701 7.87946C2.18701 4.92592 4.07065 2.79167 6.64156 2.79167C7.75129 2.79167 8.43514 2.92243 9.22215 3.30925C9.68702 3.53773 10.0979 3.83943 10.4535 4.21645L11.1893 4.99646L11.9185 4.21027C12.2821 3.81814 12.699 3.50958 13.1689 3.28101C13.9329 2.90942 14.574 2.79167 15.7361 2.79167C18.2752 2.80213 20.187 4.96691 20.187 7.87946Z" fill="#9564AA"/>
</svg>
