<svg xmlns="http://www.w3.org/2000/svg" width="23" height="17" fill="none" viewBox="0 0 23 17"><path fill="#9564AA" fill-rule="evenodd" d="M7.187 8.804a4 4 0 1 0 8 0 4 4 0 0 0-8 0m6 0a2 2 0 1 1-4 0 2 2 0 0 1 4 0" clip-rule="evenodd"/><path fill="#9564AA" fill-rule="evenodd" d="M11.187.804c2.728 0 5.336 1.43 7.766 3.781.83.802 1.58 1.658 2.24 2.515.399.517.682.923.836 1.165l.345.54-.344.538c-.155.242-.438.649-.837 1.166-.66.856-1.41 1.712-2.24 2.514-2.43 2.35-5.038 3.781-7.766 3.781s-5.336-1.43-7.766-3.781a23 23 0 0 1-2.24-2.514 18 18 0 0 1-.836-1.166L0 8.804l.345-.539C.5 8.023.782 7.617 1.18 7.1c.66-.857 1.41-1.713 2.24-2.515 2.43-2.35 5.038-3.78 7.766-3.78m8.422 7.517a21 21 0 0 0-2.046-2.298C15.469 4 13.292 2.805 11.186 2.805 9.081 2.805 6.904 4 4.81 6.024a21.3 21.3 0 0 0-2.408 2.781q.165.229.362.483a21 21 0 0 0 2.046 2.298c2.094 2.025 4.271 3.22 6.376 3.22s4.283-1.195 6.376-3.22a21.3 21.3 0 0 0 2.408-2.78q-.165-.23-.362-.484" clip-rule="evenodd"/></svg>