<svg xmlns="http://www.w3.org/2000/svg" width="23" height="21" fill="none" viewBox="0 0 23 21"><path fill="#9564AA" fill-rule="evenodd" d="M15.74.804c-1.447 0-2.38.172-3.45.692a6.2 6.2 0 0 0-1.113.695 6.3 6.3 0 0 0-1.068-.663C9.019.992 8.037.804 6.642.804 2.903.804.187 3.882.187 7.88c0 3.02 1.694 5.935 4.849 8.755 1.656 1.48 3.77 2.945 5.285 3.724l.866.446.866-.446c1.515-.779 3.63-2.244 5.285-3.724 3.155-2.82 4.849-5.736 4.849-8.755 0-3.955-2.742-7.06-6.447-7.075m4.447 7.075c0 2.366-1.414 4.8-4.186 7.278-1.512 1.35-3.455 2.7-4.814 3.409-1.359-.708-3.302-2.058-4.814-3.41-2.772-2.477-4.186-4.911-4.186-7.277 0-2.953 1.884-5.087 4.455-5.087 1.11 0 1.793.13 2.58.517q.698.342 1.232.907l.735.78.73-.786q.545-.587 1.25-.929c.764-.372 1.405-.49 2.567-.49 2.54.011 4.451 2.176 4.451 5.088" clip-rule="evenodd"/></svg>