<svg xmlns="http://www.w3.org/2000/svg" width="23" height="18" fill="none" viewBox="0 0 23 18"><path fill="#9564AA" d="M19.187 7a1 1 0 1 1-2 0 1 1 0 0 1 2 0"/><path fill="#9564AA" fill-rule="evenodd" d="M6.187 10a5 5 0 1 0 10 0 5 5 0 0 0-10 0m8 0a3 3 0 1 1-6 0 3 3 0 0 1 6 0" clip-rule="evenodd"/><path fill="#9564AA" fill-rule="evenodd" d="M6.124 2.845c.07-.098.15-.219.25-.381l.21-.347.085-.139C7.498.622 8.1 0 9.187 0h4c1.087 0 1.69.622 2.518 1.978l.084.139.211.347c.1.162.18.283.25.381q.07.098.12.155h2.817a3 3 0 0 1 3 3v9a3 3 0 0 1-3 3h-16a3 3 0 0 1-3-3V6a3 3 0 0 1 3-3h2.816q.05-.057.121-.155M3.187 5a1 1 0 0 0-1 1v9a1 1 0 0 0 1 1h16a1 1 0 0 0 1-1V6a1 1 0 0 0-1-1h-3c-.664 0-1.112-.364-1.56-.987a8 8 0 0 1-.329-.499l-.226-.372-.073-.12C13.546 2.282 13.274 2 13.187 2h-4c-.087 0-.36.282-.812 1.022l-.073.12-.226.372c-.123.2-.225.356-.328.5C7.299 4.635 6.85 5 6.187 5z" clip-rule="evenodd"/></svg>