<svg xmlns="http://www.w3.org/2000/svg" width="23" height="23" fill="none" viewBox="0 0 23 23"><path fill="#9564AA" fill-rule="evenodd" d="M11.187 15.804a4 4 0 1 1 0-8 4 4 0 0 1 0 8m2-4a2 2 0 1 1-4 0 2 2 0 0 1 4 0" clip-rule="evenodd"/><path fill="#9564AA" fill-rule="evenodd" d="m17.843 20.701 2.217-2.217-.78-2.837.34-.812 2.567-1.449v-3.135l-2.56-1.455-.334-.811.79-2.838-2.219-2.216-2.837.78-.81-.34-1.45-2.567H9.633l-1.454 2.56-.811.335-2.838-.792-2.215 2.215.78 2.838-.34.81-2.567 1.45v3.134l2.558 1.458.335.812-.791 2.837 2.216 2.217 2.838-.781.81.34 1.45 2.566h3.134l1.457-2.558.811-.334zm.197-7.271-.872 2.082.655 2.38-.568.57-2.376-.663-2.083.86-1.222 2.144h-.804l-1.212-2.146-2.08-.872-2.382.655-.567-.567.662-2.376-.86-2.083-2.144-1.222v-.805l2.147-1.211.872-2.08-.655-2.382.566-.567 2.376.663 2.084-.86 1.22-2.146h.803l1.212 2.147 2.08.872 2.382-.655.569.568-.662 2.375.86 2.084 2.146 1.22v.803z" clip-rule="evenodd"/></svg>